<?xml version="1.0" encoding="utf-8"?>
<!-- Generator: Adobe Illustrator 27.3.1, SVG Export Plug-In . SVG Version: 6.00 Build 0)  -->
<svg version="1.1" id="Слой_1" xmlns="http://www.w3.org/2000/svg" xmlns:xlink="http://www.w3.org/1999/xlink" x="0px" y="0px"
	 viewBox="0 0 484.7 442.8" style="enable-background:new 0 0 484.7 442.8;" xml:space="preserve">
<style type="text/css">
	.st0{fill:url(#SVGID_1_);}
</style>
<linearGradient id="SVGID_1_" gradientUnits="userSpaceOnUse" x1="648.5173" y1="1049.4637" x2="-261.5485" y2="778.1137" gradientTransform="matrix(1 0 0 -1 0 1080)">
	<stop  offset="0" style="stop-color:#2EACDC"/>
	<stop  offset="0.9997" style="stop-color:#032EFC"/>
	<stop  offset="1" style="stop-color:#032EFC"/>
	<stop  offset="1" style="stop-color:#ECF7FC"/>
	<stop  offset="1" style="stop-color:#FFFFFF"/>
</linearGradient>
<path class="st0" d="M-4.6-55.1c-17.3,65.7,63.5,150.1,73,160c68.3,71.4,121.9,50.1,166,114c49.5,71.6,3.4,129.4,55,182
	c40.6,41.5,114.8,52.2,167,32c50.9-19.7,47.1-55.8,125-110c58.3-40.5,70.7-27.5,95-56c56.4-66.1,26.4-178.8,13-229
	c-6.7-25-22.8-85.7-58-130C489.2-271.1,31-190.3-4.6-55.1z"/>
</svg>
