<svg xmlns="http://www.w3.org/2000/svg" xml:space="preserve" id="Слой_2" x="0" y="0" style="enable-background:new 0 0 1517.2 435" version="1.1" viewBox="0 0 1517.2 435">

    <style>.st1{fill:url(#SVGID_00000168826680175855689800000015483966745700170369_)}.st2{fill:url(#SVGID_00000036210383107163301680000003222247366468880022_)}.st3{fill:url(#SVGID_00000085958544973759784900000014575456559912489660_)}.st4{fill:url(#SVGID_00000067939472573920279220000004497883336563684744_)}.st5{fill:url(#SVGID_00000074408682644788036820000013423127643891013261_)}</style>

    <linearGradient id="SVGID_1_" x1="-80.849" x2="1736.583" y1="-31.205" y2="491.742" gradientUnits="userSpaceOnUse"><stop offset="0" style="stop-color:#0096fd"/>
        <stop offset="1" style="stop-color:#03f6fc"/>
    </linearGradient>

    <path d="M1517.2 435h-251l-56-100h255z" style="fill:url(#SVGID_1_)"/>

    <linearGradient id="SVGID_00000139263444471119383730000012960950417173369733_" x1="-41.817" x2="1775.614" y1="-160.071" y2="362.877" gradientUnits="userSpaceOnUse">
        <stop offset="0" style="stop-color:#0096fd"/><stop offset="1" style="stop-color:#03f6fc"/>
    </linearGradient><path d="M1423.7 268h-251l-56-100h255z" style="fill:url(#SVGID_00000139263444471119383730000012960950417173369733_)"/>

    <linearGradient id="SVGID_00000167378612762506315820000017174544712830610089_" x1="-4.627" x2="1812.805" y1="-289.322" y2="233.626" gradientUnits="userSpaceOnUse">
        <stop offset="0" style="stop-color:#0096fd"/><stop offset="1" style="stop-color:#03f6fc"/>
    </linearGradient><path d="M1329.7 101h-251l-56-100h255z" style="fill:url(#SVGID_00000167378612762506315820000017174544712830610089_)"/>

    <linearGradient id="SVGID_00000110462539723898159430000000424804256178848129_" x1="-60.857" x2="1756.575" y1="-93.902" y2="429.046" gradientUnits="userSpaceOnUse">
        <stop offset="0" style="stop-color:#0096fd"/><stop offset="1" style="stop-color:#03f6fc"/>
    </linearGradient><path d="m831.2 1 237 434h149L978.2 1z" style="fill:url(#SVGID_00000110462539723898159430000000424804256178848129_)"/>

    <linearGradient id="SVGID_00000011010255490039007970000004475504771364634758_" x1="-75.308" x2="1742.123" y1="-43.677" y2="479.27" gradientUnits="userSpaceOnUse">
        <stop offset="0" style="stop-color:#0096fd"/><stop offset="1" style="stop-color:#03f6fc"/>
    </linearGradient><path d="m640.2 1 239 434h145L789.2 1z" style="fill:url(#SVGID_00000011010255490039007970000004475504771364634758_)"/>

    <linearGradient id="SVGID_00000071536094451162449670000007465234654979625139_" x1="-107.655" x2="1709.776" y1="68.74" y2="591.687" gradientUnits="userSpaceOnUse">
        <stop offset="0" style="stop-color:#0096fd"/><stop offset="1" style="stop-color:#03f6fc"/>
    </linearGradient>

    <path class="text-svg" d="M591.2 1h-146l89 167h-289v100h109c.4 19.5.8 39 1.1 58.5-24.5 5.8-45.5 7.3-60.6 7.6-9.5.1-23.2.2-40-2.4-8.2-1.2-14.9-2.8-18.2-3.6-5.7-1.4-36.4-9.1-61.1-30.7-5.9-5.2-47-41.3-41.3-90.4 3.8-32.6 26.1-53.2 39-65 41.6-38.2 93.2-40.2 109.4-40.6 55.6-1.4 95.8 23.4 110.6 33.6 22.7-28 45.3-56 68-84-25.4-16-68.9-38.7-127.3-47.4-60.1-9-106.8 1.1-128.6 6.1-20.9 4.7-49.9 11.6-83.7 30.4-21 11.7-60.8 34.5-90.1 81.7C20.9 138.7 2.1 169.6.1 213.6c-2.5 55.1 23 95 32.7 109.6 31.9 48.4 76 68.6 103.5 81.3 46.7 21.4 86.5 24.8 116.6 27.4 72.1 6.1 127.4-7.8 149.1-14.1 34-9.8 61.1-22.5 80.1-32.8 0-39.1 0-78.2-.1-117.3 36.4-1.9 72.7-3.8 109.1-5.7l91 173h149L591.2 1z" style="fill:url(#SVGID_00000071536094451162449670000007465234654979625139_)"/>
    
    <clipPath id="firstClip">
        
    </clipPath>
</svg>